<svg width="49" height="49" viewBox="0 0 49 49" fill="none" xmlns="http://www.w3.org/2000/svg">
<path d="M2.36816 36.5731C2.6335 32.9901 3.7305 29.6687 5.65916 26.6091C7.58783 23.5494 10.1387 21.1282 13.3117 19.3455L9.51216 12.8105C9.41316 12.5035 9.40533 12.1981 9.48866 11.8941C9.572 11.5901 9.751 11.3547 10.0257 11.1881C10.3373 11.0134 10.6668 10.9777 11.0142 11.0811C11.3615 11.1841 11.6233 11.3864 11.7997 11.6881L15.5477 18.1341C18.447 16.8847 21.487 16.2601 24.6677 16.2601C27.8483 16.2601 30.892 16.8847 33.7987 18.1341L37.5802 11.6851C37.7578 11.3871 38.0225 11.1861 38.3742 11.0821C38.7262 10.9781 39.0593 11.0134 39.3737 11.1881C39.6383 11.3547 39.8308 11.5984 39.9512 11.9191C40.0718 12.2397 40.045 12.5374 39.8707 12.8121L36.0227 19.3455C39.1957 21.1282 41.747 23.5492 43.6767 26.6086C45.6063 29.6676 46.7068 32.9891 46.9782 36.5731H2.36816ZM14.5337 31.0011C15.2097 31.0011 15.7997 30.7479 16.3037 30.2416C16.8077 29.7349 17.0597 29.1436 17.0597 28.4676C17.0597 27.7916 16.8077 27.1996 16.3037 26.6916C15.7997 26.1836 15.2097 25.9296 14.5337 25.9296C13.8573 25.9296 13.266 26.1844 12.7597 26.6941C12.253 27.2037 11.9997 27.7967 11.9997 28.4731C11.9997 29.1491 12.253 29.7394 12.7597 30.2441C13.266 30.7487 13.8573 31.0011 14.5337 31.0011ZM34.8062 31.0011C35.4825 31.0011 36.073 30.7479 36.5777 30.2416C37.0823 29.7349 37.3347 29.1436 37.3347 28.4676C37.3347 27.7916 37.0813 27.1996 36.5747 26.6916C36.0683 26.1836 35.477 25.9296 34.8007 25.9296C34.1247 25.9296 33.5327 26.1844 33.0247 26.6941C32.5167 27.2037 32.2627 27.7967 32.2627 28.4731C32.2627 29.1491 32.5177 29.7394 33.0277 30.2441C33.5373 30.7487 34.1302 31.0011 34.8062 31.0011Z" fill="#29233B"/>
</svg>
