<svg width="49" height="49" viewBox="0 0 49 49" fill="none" xmlns="http://www.w3.org/2000/svg">
<path d="M11.4981 40.6306C10.5274 40.6306 9.71159 40.2999 9.05059 39.6386C8.38926 38.9776 8.05859 38.1617 8.05859 37.1911C8.05859 36.2204 8.38926 35.4052 9.05059 34.7456C9.71159 34.0856 10.5274 33.7556 11.4981 33.7556C12.4688 33.7556 13.2839 34.0856 13.9436 34.7456C14.6036 35.4052 14.9336 36.2204 14.9336 37.1911C14.9336 38.1617 14.6036 38.9776 13.9436 39.6386C13.2839 40.2999 12.4688 40.6306 11.4981 40.6306ZM24.3381 40.6306C23.3698 40.6306 22.5551 40.2999 21.8941 39.6386C21.2328 38.9776 20.9021 38.1617 20.9021 37.1911C20.9021 36.2204 21.2313 35.4052 21.8896 34.7456C22.5476 34.0856 23.3608 33.7556 24.3291 33.7556C25.2974 33.7556 26.1121 34.0856 26.7731 34.7456C27.4344 35.4052 27.7651 36.2204 27.7651 37.1911C27.7651 38.1617 27.4359 38.9776 26.7776 39.6386C26.1196 40.2999 25.3064 40.6306 24.3381 40.6306ZM37.1691 40.6306C36.1984 40.6306 35.3833 40.2999 34.7236 39.6386C34.0636 38.9776 33.7336 38.1617 33.7336 37.1911C33.7336 36.2204 34.0636 35.4052 34.7236 34.7456C35.3833 34.0856 36.1984 33.7556 37.1691 33.7556C38.1398 33.7556 38.9556 34.0856 39.6166 34.7456C40.2779 35.4052 40.6086 36.2204 40.6086 37.1911C40.6086 38.1617 40.2779 38.9776 39.6166 39.6386C38.9556 40.2999 38.1398 40.6306 37.1691 40.6306ZM11.4981 27.7871C10.5274 27.7871 9.71159 27.4579 9.05059 26.7996C8.38926 26.1416 8.05859 25.3284 8.05859 24.3601C8.05859 23.3917 8.38926 22.5771 9.05059 21.9161C9.71159 21.2547 10.5274 20.9241 11.4981 20.9241C12.4688 20.9241 13.2839 21.2532 13.9436 21.9116C14.6036 22.5696 14.9336 23.3827 14.9336 24.3511C14.9336 25.3194 14.6036 26.1341 13.9436 26.7951C13.2839 27.4564 12.4688 27.7871 11.4981 27.7871ZM24.3381 27.7871C23.3698 27.7871 22.5551 27.4579 21.8941 26.7996C21.2328 26.1416 20.9021 25.3284 20.9021 24.3601C20.9021 23.3917 21.2313 22.5771 21.8896 21.9161C22.5476 21.2547 23.3608 20.9241 24.3291 20.9241C25.2974 20.9241 26.1121 21.2532 26.7731 21.9116C27.4344 22.5696 27.7651 23.3827 27.7651 24.3511C27.7651 25.3194 27.4359 26.1341 26.7776 26.7951C26.1196 27.4564 25.3064 27.7871 24.3381 27.7871ZM37.1691 27.7871C36.1984 27.7871 35.3833 27.4579 34.7236 26.7996C34.0636 26.1416 33.7336 25.3284 33.7336 24.3601C33.7336 23.3917 34.0636 22.5771 34.7236 21.9161C35.3833 21.2547 36.1984 20.9241 37.1691 20.9241C38.1398 20.9241 38.9556 21.2532 39.6166 21.9116C40.2779 22.5696 40.6086 23.3827 40.6086 24.3511C40.6086 25.3194 40.2779 26.1341 39.6166 26.7951C38.9556 27.4564 38.1398 27.7871 37.1691 27.7871ZM11.4981 14.9556C10.5274 14.9556 9.71159 14.6256 9.05059 13.9656C8.38926 13.3059 8.05859 12.4907 8.05859 11.5201C8.05859 10.5494 8.38926 9.73357 9.05059 9.07257C9.71159 8.41123 10.5274 8.08057 11.4981 8.08057C12.4688 8.08057 13.2839 8.41123 13.9436 9.07257C14.6036 9.73357 14.9336 10.5494 14.9336 11.5201C14.9336 12.4907 14.6036 13.3059 13.9436 13.9656C13.2839 14.6256 12.4688 14.9556 11.4981 14.9556ZM24.3381 14.9556C23.3698 14.9556 22.5551 14.6256 21.8941 13.9656C21.2328 13.3059 20.9021 12.4907 20.9021 11.5201C20.9021 10.5494 21.2313 9.73357 21.8896 9.07257C22.5476 8.41123 23.3608 8.08057 24.3291 8.08057C25.2974 8.08057 26.1121 8.41123 26.7731 9.07257C27.4344 9.73357 27.7651 10.5494 27.7651 11.5201C27.7651 12.4907 27.4359 13.3059 26.7776 13.9656C26.1196 14.6256 25.3064 14.9556 24.3381 14.9556ZM37.1691 14.9556C36.1984 14.9556 35.3833 14.6256 34.7236 13.9656C34.0636 13.3059 33.7336 12.4907 33.7336 11.5201C33.7336 10.5494 34.0636 9.73357 34.7236 9.07257C35.3833 8.41123 36.1984 8.08057 37.1691 8.08057C38.1398 8.08057 38.9556 8.41123 39.6166 9.07257C40.2779 9.73357 40.6086 10.5494 40.6086 11.5201C40.6086 12.4907 40.2779 13.3059 39.6166 13.9656C38.9556 14.6256 38.1398 14.9556 37.1691 14.9556Z" fill="#29233B"/>
</svg>
