<svg width="24" height="25" viewBox="0 0 24 25" fill="none" xmlns="http://www.w3.org/2000/svg">
<path d="M4.11914 3.7002H7.61914C7.80287 3.70021 7.9305 3.75492 8.03516 3.85352C8.12866 3.94161 8.20717 4.05605 8.26562 4.20703L8.31738 4.37012L8.98242 7.38379C9.01509 7.61558 9.00757 7.80058 8.97266 7.94727C8.94151 8.07823 8.87973 8.1865 8.78027 8.28125L8.77344 8.28711L6.25586 10.7705L5.97656 11.0459L6.17676 11.3818C6.60349 12.099 7.05697 12.7715 7.53711 13.3975C8.01993 14.027 8.55611 14.625 9.14453 15.1924C9.75791 15.8256 10.3991 16.4008 11.0684 16.916C11.7435 17.4358 12.449 17.8908 13.1846 18.2803L13.5156 18.4551L13.7764 18.1875L16.1816 15.7197L16.1914 15.709C16.331 15.5576 16.4776 15.4664 16.6338 15.4199C16.7648 15.3811 16.8946 15.3675 17.0254 15.377L17.1572 15.3945L19.9775 16.0186C20.1433 16.0647 20.2751 16.1361 20.3818 16.2305L20.4814 16.333C20.5982 16.474 20.6553 16.6319 20.6553 16.8262V20.2363C20.6553 20.4733 20.5811 20.6449 20.4375 20.7871C20.2911 20.9321 20.1182 21.0049 19.8867 21.0049C18.0116 21.0048 16.0913 20.5546 14.1221 19.6396C12.1539 18.7252 10.323 17.4246 8.62988 15.7314C7.04282 14.1444 5.79979 12.4353 4.89551 10.6045L4.71875 10.2363C3.80172 8.26485 3.35059 6.34555 3.35059 4.47461C3.3506 4.29675 3.39186 4.15428 3.47363 4.0332L3.56934 3.91895C3.71339 3.7741 3.88514 3.7002 4.11914 3.7002ZM4.06641 4.93066C4.09734 5.64364 4.20935 6.39197 4.39941 7.17383C4.59098 7.96185 4.8907 8.83165 5.29492 9.78027L5.58398 10.459L6.10742 9.93848L8.12695 7.93066L8.32031 7.73828L8.2627 7.47168L7.69434 4.80469L7.60938 4.40918H4.04395L4.06641 4.93066ZM19.9463 16.7324L19.5479 16.6504L17.0625 16.1357L16.791 16.0801L16.5986 16.2803L14.6357 18.3379L14.1543 18.8418L14.7871 19.1367C15.482 19.4599 16.2354 19.7219 17.0449 19.9248C17.8556 20.1279 18.6478 20.2499 19.4209 20.2891L19.9463 20.3154V16.7324Z" fill="#29233B" stroke="#29233B"/>
</svg>
