<svg width="48" height="49" viewBox="0 0 48 49" fill="none" xmlns="http://www.w3.org/2000/svg">
<path d="M22.4287 31.8037V36.8622C22.4287 37.3075 22.5783 37.6809 22.8777 37.9822C23.1773 38.2835 23.5545 38.4342 24.0092 38.4342C24.4635 38.4342 24.8375 38.2852 25.1312 37.9872C25.4248 37.6892 25.5717 37.3142 25.5717 36.8622V31.8037H30.6307C31.076 31.8037 31.4493 31.6522 31.7507 31.3492C32.0517 31.0462 32.2022 30.6709 32.2022 30.2232C32.2022 29.7685 32.0533 29.3944 31.7557 29.1007C31.4577 28.807 31.0827 28.6602 30.6307 28.6602H25.5717V23.5892C25.5717 23.1439 25.422 22.7707 25.1227 22.4697C24.823 22.1684 24.4458 22.0177 23.9912 22.0177C23.5368 22.0177 23.1628 22.1684 22.8692 22.4697C22.5755 22.7707 22.4287 23.1439 22.4287 23.5892V28.6602H17.3697C16.9243 28.6602 16.551 28.8099 16.2497 29.1092C15.9487 29.4089 15.7982 29.784 15.7982 30.2347C15.7982 30.6854 15.947 31.0595 16.2447 31.3572C16.5427 31.6549 16.9177 31.8037 17.3697 31.8037H22.4287ZM11.1077 44.6307C10.171 44.6307 9.369 44.2972 8.70167 43.6302C8.03467 42.9629 7.70117 42.1609 7.70117 41.2242V19.7392C7.70117 18.7992 8.03467 17.9945 8.70167 17.3252C9.369 16.6555 10.171 16.3207 11.1077 16.3207H14.3687V11.7842C14.3687 9.1052 15.3065 6.8242 17.1822 4.9412C19.0575 3.0582 21.331 2.1167 24.0027 2.1167C26.6743 2.1167 28.947 3.0582 30.8207 4.9412C32.6947 6.8242 33.6317 9.1052 33.6317 11.7842V16.3207H36.8927C37.8327 16.3207 38.6373 16.6555 39.3067 17.3252C39.9763 17.9945 40.3112 18.7992 40.3112 19.7392V41.2242C40.3112 42.1609 39.9763 42.9629 39.3067 43.6302C38.6373 44.2972 37.8327 44.6307 36.8927 44.6307H11.1077ZM11.1077 41.2242H36.8927V19.7392H11.1077V41.2242ZM17.7752 16.3207H30.2252V11.7867C30.2252 10.0404 29.6227 8.56187 28.4177 7.3512C27.2127 6.14053 25.743 5.5352 24.0087 5.5352C22.2747 5.5352 20.8023 6.14053 19.5917 7.3512C18.3807 8.56187 17.7752 10.0404 17.7752 11.7867V16.3207Z" fill="#29233B"/>
</svg>
