<svg width="24" height="25" viewBox="0 0 24 25" fill="none" xmlns="http://www.w3.org/2000/svg">
<path fill-rule="evenodd" clip-rule="evenodd" d="M16 3.59814H8C5.23858 3.59814 3 5.83672 3 8.59814V16.5981C3 19.3595 5.23858 21.5981 8 21.5981H16C18.7614 21.5981 21 19.3595 21 16.5981V8.59814C21 5.83672 18.7614 3.59814 16 3.59814ZM19.25 16.5981C19.2445 18.3907 17.7926 19.8426 16 19.8481H8C6.20735 19.8426 4.75549 18.3907 4.75 16.5981V8.59814C4.75549 6.80549 6.20735 5.35363 8 5.34814H16C17.7926 5.35363 19.2445 6.80549 19.25 8.59814V16.5981ZM16.75 8.84814C17.3023 8.84814 17.75 8.40042 17.75 7.84814C17.75 7.29586 17.3023 6.84814 16.75 6.84814C16.1977 6.84814 15.75 7.29586 15.75 7.84814C15.75 8.40042 16.1977 8.84814 16.75 8.84814ZM12 8.09814C9.51472 8.09814 7.5 10.1129 7.5 12.5981C7.5 15.0834 9.51472 17.0981 12 17.0981C14.4853 17.0981 16.5 15.0834 16.5 12.5981C16.5027 11.4038 16.0294 10.2577 15.1849 9.41322C14.3404 8.56873 13.1943 8.09548 12 8.09814ZM9.25 12.5981C9.25 14.1169 10.4812 15.3481 12 15.3481C13.5188 15.3481 14.75 14.1169 14.75 12.5981C14.75 11.0793 13.5188 9.84814 12 9.84814C10.4812 9.84814 9.25 11.0793 9.25 12.5981Z" fill="white"/>
</svg>
