<svg width="49" height="49" viewBox="0 0 49 49" fill="none" xmlns="http://www.w3.org/2000/svg">
<path fill-rule="evenodd" clip-rule="evenodd" d="M4.8335 24.3555C4.8335 13.5895 13.5676 4.85547 24.3335 4.85547C35.0994 4.85547 43.8335 13.5895 43.8335 24.3555C43.8335 35.1214 35.0994 43.8555 24.3335 43.8555C13.5676 43.8555 4.8335 35.1214 4.8335 24.3555ZM24.3335 7.85547C15.2244 7.85547 7.8335 15.2464 7.8335 24.3555C7.8335 33.4645 15.2244 40.8555 24.3335 40.8555C33.4426 40.8555 40.8335 33.4645 40.8335 24.3555C40.8335 15.2464 33.4426 7.85547 24.3335 7.85547Z" fill="#29233B"/>
<path fill-rule="evenodd" clip-rule="evenodd" d="M24.3335 15.3555C25.1619 15.3555 25.8335 16.027 25.8335 16.8555V22.8555H31.8335C32.6619 22.8555 33.3335 23.527 33.3335 24.3555C33.3335 25.1839 32.6619 25.8555 31.8335 25.8555H25.8335V31.8555C25.8335 32.6839 25.1619 33.3555 24.3335 33.3555C23.5051 33.3555 22.8335 32.6839 22.8335 31.8555V25.8555H16.8335C16.0051 25.8555 15.3335 25.1839 15.3335 24.3555C15.3335 23.527 16.0051 22.8555 16.8335 22.8555H22.8335V16.8555C22.8335 16.027 23.5051 15.3555 24.3335 15.3555Z" fill="#29233B"/>
</svg>
