<svg width="48" height="49" viewBox="0 0 48 49" fill="none" xmlns="http://www.w3.org/2000/svg">
<path fill-rule="evenodd" clip-rule="evenodd" d="M3 24.5059C3 12.9084 12.4025 3.50586 24 3.50586C35.5975 3.50586 45 12.9084 45 24.5059C45 36.1033 35.5975 45.5059 24 45.5059C12.4025 45.5059 3 36.1033 3 24.5059ZM24 6.50586C14.0594 6.50586 6 14.5652 6 24.5059C6 34.4465 14.0594 42.5059 24 42.5059C33.9406 42.5059 42 34.4465 42 24.5059C42 14.5652 33.9406 6.50586 24 6.50586Z" fill="#29233B"/>
<path d="M41.7721 16.644C40.2665 16.6534 40.4146 19.4312 38.5387 18.1206C37.8421 17.6349 37.4137 16.929 36.539 16.7143C35.775 16.5268 34.9921 16.7218 34.2375 16.8521C33.3796 17.0003 32.3625 17.0668 31.7118 17.7165C31.0828 18.3418 30.75 19.1809 30.0806 19.8099C28.7859 21.0287 28.2393 22.359 29.0775 24.0821C29.8837 25.7387 31.5703 26.6378 33.39 26.5196C35.1778 26.4006 37.035 25.3637 36.9834 27.9615C36.9646 28.8803 37.1568 29.5178 37.439 30.3718C37.7006 31.1593 37.6828 31.9224 37.7428 32.7353C37.8534 34.254 38.1328 35.9565 38.8865 37.2981L40.2928 35.3143C40.4662 35.0687 40.829 34.7246 40.9153 34.4349C41.0681 33.9221 40.7671 33.0409 40.7325 32.4662C40.6978 31.8915 40.7146 31.3093 40.6265 30.7346C40.5028 29.9293 40.0265 29.1746 39.9609 28.3787C39.84 26.8965 40.1109 25.7134 38.969 24.474C37.8665 23.2787 36.2503 22.9918 34.7062 23.2346C33.9281 23.3565 30.7959 23.8571 32.0531 22.0787C32.3015 21.729 32.7356 21.4421 33.015 21.1093C33.2578 20.8196 33.4687 20.2871 33.7537 20.0612C34.0387 19.8353 35.3475 19.5756 35.7225 19.6909C36.0975 19.8062 36.4884 20.3471 36.8137 20.5871C37.4148 21.0398 38.1162 21.3409 38.8584 21.4646C40.139 21.6521 42.8165 20.9078 42.7959 19.2653C42.7921 18.4778 42.0609 17.3809 41.7721 16.644ZM26.9484 30.159C26.4487 28.0553 23.5903 27.3521 22.049 26.2112C21.1631 25.5549 20.3746 24.5415 19.2112 24.459C18.675 24.4206 18.2259 24.5368 17.6943 24.399C17.2068 24.2734 16.8243 24.0109 16.305 24.0793C15.3346 24.2068 14.7225 25.2437 13.68 25.1031C12.6909 24.9699 11.6718 23.8131 11.4468 22.8709C11.1581 21.6596 12.1162 21.2668 13.1428 21.159C13.5712 21.114 14.0521 21.0653 14.4637 21.2218C15.0056 21.4234 15.2615 21.954 15.7481 22.2221C16.6603 22.7218 16.845 21.9231 16.7053 21.1131C16.4962 19.8999 16.2525 19.4049 17.3343 18.5706C18.0843 17.9949 18.7256 17.5787 18.6056 16.5446C18.5343 15.9371 18.2015 15.6624 18.5118 15.0578C18.7471 14.5974 19.3931 14.1821 19.814 13.9074C20.9006 13.1987 24.4687 13.2512 23.0109 11.2674C22.5825 10.6853 21.7921 9.64463 21.0421 9.50213C20.1046 9.32494 19.6884 10.3712 19.035 10.8324C18.36 11.3096 17.0456 11.8515 16.3696 11.1137C15.4603 10.1209 16.9725 9.79463 17.3071 9.10181C17.6418 8.409 16.5318 7.09931 15.9375 6.76744L13.1428 9.9015C13.0625 10.4264 13.0904 10.9621 13.2249 11.4758C13.3594 11.9894 13.5975 12.4702 13.9246 12.8884C14.4806 13.6037 15.3656 13.8334 15.4059 14.8103C15.4453 15.7478 15.299 16.2278 14.6859 16.8868C14.4206 17.1681 14.2331 17.5674 13.9631 17.8309C13.6321 18.1524 13.755 18.054 13.2384 18.1421C12.2671 18.3062 11.4403 18.5593 10.5018 18.8181C8.93808 19.2503 8.7937 16.6956 8.0812 15.6934L5.73745 17.5862C5.71214 17.8965 6.12183 18.4674 6.23339 18.8049C6.8737 20.7334 8.16558 22.2249 8.99995 24.0699C9.87839 26.0237 12.2371 25.4818 13.2787 27.1937C14.2031 28.7124 13.2159 30.6353 13.9078 32.2253C14.4103 33.3793 15.5953 33.6315 16.4128 34.4753C17.2481 35.3274 17.2303 36.4937 17.3578 37.6028C17.5016 38.9072 17.7349 40.2003 18.0562 41.4728C18.1696 41.9124 18.2737 42.4937 18.5746 42.8565C18.7809 43.1059 19.4887 43.3206 19.2028 43.4031C19.6021 43.4687 20.3137 43.8418 20.6465 43.5681C21.0853 43.2081 20.9681 42.0999 21.044 41.5993C21.2718 40.1087 22.0181 38.6509 23.025 37.5353C24.0196 36.4346 25.3828 35.6893 26.2228 34.4415C27.0412 33.2246 27.2878 31.5831 26.9484 30.159ZM23.8181 32.6265C23.2556 33.6306 22.0031 34.3028 21.1978 35.1006C20.9793 35.3171 20.5143 36.0671 20.2406 35.9049C20.0446 35.7887 19.9781 34.8156 19.9059 34.5924C19.5335 33.4689 18.8225 32.4881 17.8706 31.7846C17.5771 31.5624 16.8496 31.2737 16.6818 30.969C16.4943 30.6381 16.6631 29.8571 16.6696 29.4971C16.68 28.9721 16.4409 28.0993 16.5703 27.6221C16.7203 27.0718 16.4315 27.4037 16.9237 27.2949C17.1834 27.2368 18.2559 27.4253 18.5793 27.4928C19.0931 27.5996 19.3762 27.9193 19.7812 28.2428C20.8462 29.0968 22.019 29.7578 23.2125 30.4121C24.1368 30.924 24.4087 31.5718 23.8181 32.6265ZM17.2931 6.79556C17.7375 7.22963 18.1556 7.74338 18.8184 7.7865C19.4456 7.82869 20.0371 7.48931 20.5846 7.91588C21.1921 8.38463 21.63 8.97806 22.4362 9.12431C23.2162 9.26588 24.0421 8.81025 24.2353 8.01244C24.4228 7.25213 24.0187 6.42525 23.9943 5.66213C23.9943 5.55619 24.0515 5.08556 23.9784 5.00588C23.924 4.94588 23.4703 5.01338 23.4009 5.01525C22.8928 5.03025 22.3859 5.06525 21.8803 5.12025C20.037 5.31977 18.2318 5.78227 16.5196 6.49369C16.7475 6.65119 17.0334 6.714 17.2931 6.79556ZM33.4125 12.0624C34.2084 12.0624 35.0165 11.7062 34.7596 10.7856C34.544 10.014 34.1765 9.17681 33.2821 9.59306C32.7131 9.85744 31.9068 10.5306 31.8403 11.1981C31.7643 11.9556 32.8818 12.0624 33.4125 12.0624ZM32.7768 16.0909C33.5896 16.5774 34.7953 16.3487 35.4084 15.654C35.8875 15.1103 36.1696 14.1662 37.0312 14.1671C37.4105 14.1663 37.7749 14.3149 38.0456 14.5806C38.4018 14.949 38.3315 15.2949 38.4075 15.7562C38.5771 16.7921 39.6881 15.8153 39.9778 15.414C40.1653 15.1524 40.4193 14.7643 40.334 14.424C40.2553 14.1062 39.884 13.7678 39.719 13.4762C39.2371 12.6324 38.8406 11.6509 38.1187 10.9693C37.424 10.3131 36.57 10.389 35.9109 11.0706C35.3709 11.6331 34.7437 12.0784 34.3743 12.7628C34.1137 13.2437 33.8203 13.4734 33.2924 13.5981C33.0018 13.6665 32.67 13.6918 32.4262 13.8868C31.7475 14.4212 32.1337 15.7046 32.7768 16.0909Z" fill="#29233B"/>
</svg>
