<svg width="48" height="49" viewBox="0 0 48 49" fill="none" xmlns="http://www.w3.org/2000/svg">
<path fill-rule="evenodd" clip-rule="evenodd" d="M1.5 24.3555C1.5 18.5294 6.31447 13.8555 12.1875 13.8555C16.477 13.8555 19.8047 16.4838 21.9474 18.8482C23.0388 20.0525 23.8803 21.2503 24.4487 22.1448C24.7338 22.5935 24.9527 22.9699 25.1022 23.2378C25.177 23.3719 25.2346 23.4791 25.2746 23.555C25.2946 23.5929 25.3103 23.6231 25.3214 23.6449L25.3349 23.6712L25.3391 23.6796L25.3406 23.6825L25.3407 23.6829L25.341 23.6834L25.3412 23.6837C25.3414 23.6842 25.3416 23.6846 24 24.3555C22.6584 25.0263 22.6586 25.0267 22.6587 25.027L22.6585 25.0267L22.6523 25.0144L22.6207 24.9538C22.5912 24.8979 22.545 24.8117 22.4825 24.6997C22.3574 24.4754 22.1676 24.1487 21.9166 23.7537C21.4127 22.9607 20.6722 21.9085 19.7245 20.8627C17.789 18.7271 15.2105 16.8555 12.1875 16.8555C7.91303 16.8555 4.5 20.244 4.5 24.3555C4.5 28.4669 7.91303 31.8555 12.1875 31.8555C15.1098 31.8555 17.876 30.0873 19.8844 27.8528C20.4382 27.2366 21.3866 27.1861 22.0027 27.7399C22.6188 28.2936 22.6694 29.242 22.1156 29.8582C19.8115 32.4218 16.2983 34.8555 12.1875 34.8555C6.31447 34.8555 1.5 30.1815 1.5 24.3555ZM24 24.3555C22.6584 25.0263 22.6586 25.0267 22.6588 25.0272L22.659 25.0276L22.6593 25.0281L22.6594 25.0284L22.6609 25.0314L22.6651 25.0397L22.6786 25.0661C22.6897 25.0879 22.7054 25.118 22.7254 25.156C22.7654 25.2319 22.823 25.3391 22.8978 25.4731C23.0473 25.7411 23.2662 26.1174 23.5513 26.5662C24.1197 27.4607 24.9612 28.6585 26.0526 29.8627C28.1953 32.2271 31.523 34.8555 35.8125 34.8555C41.6855 34.8555 46.5 30.1815 46.5 24.3555C46.5 18.5294 41.6855 13.8555 35.8125 13.8555C31.7017 13.8555 28.1885 16.2892 25.8844 18.8528C25.3306 19.4689 25.3812 20.4173 25.9973 20.9711C26.6134 21.5249 27.5618 21.4743 28.1156 20.8582C30.124 18.6237 32.8902 16.8555 35.8125 16.8555C40.087 16.8555 43.5 20.244 43.5 24.3555C43.5 28.4669 40.087 31.8555 35.8125 31.8555C32.7895 31.8555 30.211 29.9838 28.2755 27.8482C27.3278 26.8025 26.5873 25.7503 26.0834 24.9573C25.8324 24.5623 25.6426 24.2355 25.5175 24.0112C25.455 23.8992 25.4088 23.8131 25.3793 23.7571L25.3477 23.6965L25.3415 23.6843L25.3413 23.6839C25.3414 23.6843 25.3416 23.6846 24 24.3555Z" fill="#29233B"/>
</svg>
