<svg width="48" height="49" viewBox="0 0 48 49" fill="none" xmlns="http://www.w3.org/2000/svg">
<path d="M4.51595 11.1314C4.05434 11.3942 3.67077 11.7748 3.40443 12.2343C3.13808 12.6939 2.99853 13.2159 3.00002 13.7471V41.5683C2.99834 42.0867 3.131 42.5966 3.38506 43.0484C3.63912 43.5002 4.00592 43.8785 4.44969 44.1464C4.89346 44.4142 5.39907 44.5626 5.91722 44.5769C6.43537 44.5912 6.94839 44.471 7.40627 44.228C7.44658 44.2064 7.48595 44.1839 7.52439 44.1586L15.4125 38.9977C15.5173 38.9294 15.6033 38.8359 15.6627 38.7259C15.7221 38.6159 15.7531 38.4927 15.7528 38.3677V4.8605C15.7532 4.72387 15.7163 4.58974 15.646 4.47258C15.5757 4.35542 15.4748 4.25968 15.354 4.1957C15.2333 4.13173 15.0974 4.10194 14.961 4.10956C14.8246 4.11718 14.6929 4.16191 14.58 4.23893L4.51595 11.1314ZM19.9088 4.19112C19.7957 4.11762 19.6649 4.07596 19.5301 4.07055C19.3953 4.06514 19.2616 4.09617 19.143 4.16037C19.0244 4.22457 18.9253 4.31956 18.8561 4.43535C18.787 4.55114 18.7503 4.68344 18.75 4.81831V38.3396C18.7497 38.4646 18.7807 38.5878 18.8401 38.6978C18.8996 38.8078 18.9856 38.9012 19.0903 38.9696L28.0903 44.8214C28.2035 44.8952 28.3345 44.9371 28.4695 44.9426C28.6045 44.9481 28.7384 44.917 28.8572 44.8527C28.976 44.7883 29.0752 44.6931 29.1444 44.5771C29.2135 44.461 29.25 44.3284 29.25 44.1933V10.6936C29.2504 10.5683 29.2193 10.4449 29.1597 10.3347C29.1001 10.2245 29.0138 10.131 28.9088 10.0627L19.9088 4.19112ZM43.5497 4.86237C43.1076 4.59179 42.6023 4.44179 42.0841 4.42732C41.566 4.41284 41.0531 4.5344 40.5966 4.77987C40.5562 4.80062 40.517 4.82379 40.4794 4.84925L32.5903 10.0055C32.4856 10.0738 32.3996 10.1672 32.3401 10.2773C32.2807 10.3873 32.2497 10.5104 32.25 10.6355V44.1474C32.2495 44.2841 32.2864 44.4185 32.3568 44.5358C32.4271 44.6531 32.5281 44.7489 32.649 44.8129C32.7699 44.8769 32.906 44.9067 33.0425 44.8989C33.1791 44.8912 33.3109 44.8462 33.4238 44.7689L43.4616 37.8821C43.9288 37.6214 44.3178 37.2406 44.5883 36.7791C44.8588 36.3175 45.0009 35.792 45 35.2571V7.50706C45.0062 6.97871 44.8759 6.4577 44.6219 5.99441C44.3678 5.53112 43.9985 5.1412 43.5497 4.86237Z" fill="#29233B"/>
</svg>
