<svg width="48" height="49" viewBox="0 0 48 49" fill="none" xmlns="http://www.w3.org/2000/svg">
<path fill-rule="evenodd" clip-rule="evenodd" d="M12 21.5059C10.3431 21.5059 9 22.849 9 24.5059C9 26.1627 10.3431 27.5059 12 27.5059C13.6569 27.5059 15 26.1627 15 24.5059C15 22.849 13.6569 21.5059 12 21.5059ZM6 24.5059C6 21.1922 8.68629 18.5059 12 18.5059C15.3137 18.5059 18 21.1922 18 24.5059C18 27.8196 15.3137 30.5059 12 30.5059C8.68629 30.5059 6 27.8196 6 24.5059Z" fill="#29233B"/>
<path fill-rule="evenodd" clip-rule="evenodd" d="M36 8.00586C34.3431 8.00586 33 9.349 33 11.0059C33 12.6627 34.3431 14.0059 36 14.0059C37.6569 14.0059 39 12.6627 39 11.0059C39 9.349 37.6569 8.00586 36 8.00586ZM30 11.0059C30 7.69215 32.6863 5.00586 36 5.00586C39.3137 5.00586 42 7.69215 42 11.0059C42 14.3196 39.3137 17.0059 36 17.0059C32.6863 17.0059 30 14.3196 30 11.0059Z" fill="#29233B"/>
<path fill-rule="evenodd" clip-rule="evenodd" d="M36 35.0059C34.3431 35.0059 33 36.349 33 38.0059C33 39.6627 34.3431 41.0059 36 41.0059C37.6569 41.0059 39 39.6627 39 38.0059C39 36.349 37.6569 35.0059 36 35.0059ZM30 38.0059C30 34.6922 32.6863 32.0059 36 32.0059C39.3137 32.0059 42 34.6922 42 38.0059C42 41.3196 39.3137 44.0059 36 44.0059C32.6863 44.0059 30 41.3196 30 38.0059Z" fill="#29233B"/>
<path fill-rule="evenodd" clip-rule="evenodd" d="M33.3859 12.4764C33.792 13.1985 33.536 14.113 32.8139 14.5192L16.657 23.6073C15.935 24.0134 15.0204 23.7574 14.6143 23.0353C14.2081 22.3133 14.4642 21.3987 15.1863 20.9926L31.3431 11.9044C32.0652 11.4983 32.9798 11.7544 33.3859 12.4764ZM14.6143 25.9764C15.0204 25.2544 15.935 24.9983 16.657 25.4044L32.8139 34.4926C33.536 34.8987 33.792 35.8133 33.3859 36.5353C32.9798 37.2574 32.0652 37.5134 31.3431 37.1073L15.1863 28.0192C14.4642 27.613 14.2081 26.6985 14.6143 25.9764Z" fill="#29233B"/>
</svg>
