<svg width="48" height="49" viewBox="0 0 48 49" fill="none" xmlns="http://www.w3.org/2000/svg">
<path fill-rule="evenodd" clip-rule="evenodd" d="M8.25 0.505859C8.87066 0.505859 9.42722 0.888103 9.65002 1.46739L11.2857 5.72016L15.5385 7.35584C16.1178 7.57864 16.5 8.1352 16.5 8.75586C16.5 9.37652 16.1178 9.93307 15.5385 10.1559L11.2857 11.7916L9.65002 16.0443C9.42722 16.6236 8.87066 17.0059 8.25 17.0059C7.62934 17.0059 7.07278 16.6236 6.84998 16.0443L5.2143 11.7916L0.961531 10.1559C0.382243 9.93307 0 9.37652 0 8.75586C0 8.1352 0.382243 7.57864 0.961531 7.35584L5.2143 5.72016L6.84998 1.46739C7.07278 0.888103 7.62934 0.505859 8.25 0.505859ZM8.25 6.18438L7.77502 7.41933C7.62266 7.81547 7.30961 8.12852 6.91347 8.28088L5.67852 8.75586L6.91347 9.23084C7.30961 9.3832 7.62266 9.69625 7.77502 10.0924L8.25 11.3273L8.72498 10.0924C8.87734 9.69625 9.19039 9.3832 9.58653 9.23084L10.8215 8.75586L9.58653 8.28088C9.19039 8.12852 8.87734 7.81547 8.72498 7.41933L8.25 6.18438ZM37.5 3.50586C38.1206 3.50586 38.6772 3.88806 38.9 4.46731L41.161 10.3449L47.0386 12.6059C47.6178 12.8287 48 13.3852 48 14.0059C48 14.6265 47.6178 15.183 47.0386 15.4058L41.161 17.6668L38.9 23.5444C38.6772 24.1237 38.1206 24.5059 37.5 24.5059C36.8794 24.5059 36.3228 24.1237 36.1 23.5444L33.839 17.6668L27.9615 15.4058C27.3822 15.183 27 14.6265 27 14.0059C27 13.3852 27.3822 12.8287 27.9615 12.6059L33.839 10.3449L36.1 4.46731C36.3228 3.88806 36.8794 3.50586 37.5 3.50586ZM37.5 9.18374L36.3997 12.0441C36.2473 12.4402 35.9343 12.7532 35.5382 12.9055L32.6779 14.0059L35.5382 15.1062C35.9343 15.2585 36.2473 15.5715 36.3997 15.9676L37.5 18.828L38.6003 15.9676C38.7527 15.5715 39.0657 15.2585 39.4618 15.1062L42.3221 14.0059L39.4618 12.9055C39.0657 12.7532 38.7527 12.4402 38.6003 12.0441L37.5 9.18374ZM18.1732 12.9177C18.5637 12.6495 19.0263 12.506 19.5 12.506C19.9737 12.506 20.4363 12.6495 20.8268 12.9177C21.2174 13.1859 21.5174 13.5661 21.6875 14.0083L25.6628 24.343L35.9976 28.3184C36.4397 28.4884 36.82 28.7885 37.0882 29.179C37.3563 29.5695 37.4999 30.0321 37.4999 30.5059C37.4999 30.9796 37.3563 31.4422 37.0882 31.8327C36.82 32.2232 36.4397 32.5233 35.9976 32.6934L25.6628 36.6687L21.6875 47.0034C21.5174 47.4456 21.2174 47.8258 20.8268 48.094C20.4363 48.3622 19.9737 48.5058 19.5 48.5058C19.0263 48.5058 18.5637 48.3622 18.1732 48.094C17.7826 47.8258 17.4826 47.4456 17.3125 47.0034L13.3372 36.6687L3.00242 32.6934C2.56027 32.5233 2.18004 32.2232 1.91185 31.8327C1.64366 31.4422 1.5001 30.9796 1.5001 30.5059C1.5001 30.0321 1.64366 29.5695 1.91185 29.179C2.18004 28.7885 2.56027 28.4884 3.00242 28.3184L13.3372 24.343L17.3125 14.0083C17.4826 13.5661 17.7826 13.1859 18.1732 12.9177ZM13.6094 24.2383L13.6093 24.2384L13.6094 24.2383ZM18.8879 15.0864L18.8875 15.0853L19.5 14.8497L20.1125 15.0853L20.1121 15.0864C20.1122 15.0861 20.1124 15.0857 20.1125 15.0853L19.5 14.8497L18.9925 14.6545M18.8879 15.0864C18.8878 15.0861 18.8876 15.0857 18.8875 15.0853L19.5 14.8497M19.5 16.6776L16.0326 25.6921C16.0325 25.6921 16.0325 25.6921 16.0325 25.6922C15.9148 25.9983 15.7341 26.2762 15.5023 26.5081C15.2704 26.74 14.9924 26.9206 14.6863 27.0384C14.6863 27.0384 14.6862 27.0384 14.6862 27.0384L5.67178 30.5059L14.6862 33.9733C14.6862 33.9733 14.6863 33.9733 14.6863 33.9734C14.9924 34.0911 15.2704 34.2717 15.5023 34.5036C15.7341 34.7355 15.9148 35.0135 16.0325 35.3195M16.0326 35.3197L19.5 44.3341L22.9675 35.3197C22.9675 35.3196 22.9675 35.3196 22.9675 35.3195C23.0852 35.0135 23.2658 34.7355 23.4977 34.5036C23.7296 34.2717 24.0076 34.0911 24.3137 33.9734M24.3138 33.9733L33.3282 30.5059L24.3138 27.0384C24.3138 27.0384 24.3137 27.0384 24.3137 27.0384C24.0076 26.9206 23.7296 26.74 23.4977 26.5081C23.2658 26.2762 23.0852 25.9982 22.9675 25.6922C22.9675 25.6921 22.9675 25.6921 22.9675 25.6921L19.5 16.6776M34.9205 31.1184C34.9203 31.1183 34.9201 31.1182 34.9199 31.1181L34.9205 31.1184ZM18.8875 45.9264C18.8876 45.9262 18.8877 45.9259 18.8878 45.9257L18.8875 45.9264ZM4.08053 29.8938C4.08017 29.8936 4.07981 29.8935 4.07945 29.8934L3.84386 30.5059L4.07945 31.1184C4.07981 31.1182 4.08017 31.1181 4.08053 31.1179L4.07946 31.1184L3.84386 30.5059L4.07946 29.8934L4.08053 29.8938Z" fill="#29233B"/>
</svg>
