<svg width="24" height="25" viewBox="0 0 24 25" fill="none" xmlns="http://www.w3.org/2000/svg">
<path fill-rule="evenodd" clip-rule="evenodd" d="M4.5 3.59814C3.67157 3.59814 3 4.26971 3 5.09814V20.0981C3 20.9265 3.67157 21.5981 4.5 21.5981H19.5C20.3284 21.5981 21 20.9265 21 20.0981V5.09814C21 4.26971 20.3284 3.59814 19.5 3.59814H4.5ZM8.52076 7.60086C8.52639 8.55711 7.81061 9.14633 6.96123 9.14211C6.16107 9.13789 5.46357 8.50086 5.46779 7.60227C5.47201 6.75711 6.13998 6.07789 7.00764 6.09758C7.88795 6.11727 8.52639 6.76274 8.52076 7.60086ZM12.2797 10.3599H9.75971H9.7583V18.9197H12.4217V18.72C12.4217 18.3401 12.4214 17.9601 12.4211 17.58C12.4203 16.5662 12.4194 15.5513 12.4246 14.5378C12.426 14.2917 12.4372 14.0358 12.5005 13.8009C12.7381 12.9234 13.5271 12.3567 14.4074 12.496C14.9727 12.5845 15.3467 12.9122 15.5042 13.4452C15.6013 13.7784 15.6449 14.137 15.6491 14.4844C15.6605 15.532 15.6589 16.5796 15.6573 17.6273C15.6567 17.9971 15.6561 18.3671 15.6561 18.7369V18.9183H18.328V18.713C18.328 18.261 18.3278 17.8091 18.3275 17.3572C18.327 16.2277 18.3264 15.0982 18.3294 13.9683C18.3308 13.4578 18.276 12.9544 18.1508 12.4608C17.9638 11.7267 17.5771 11.1192 16.9485 10.6805C16.5027 10.3683 16.0133 10.1672 15.4663 10.1447C15.404 10.1422 15.3412 10.1388 15.2781 10.1354C14.9984 10.1202 14.7141 10.1049 14.4467 10.1588C13.6817 10.3121 13.0096 10.6622 12.5019 11.2795C12.4429 11.3503 12.3852 11.4222 12.2991 11.5295L12.2797 11.5538V10.3599ZM5.68164 18.9225H8.33242V10.3655H5.68164V18.9225Z" fill="white"/>
</svg>
