<svg width="24" height="25" viewBox="0 0 24 25" fill="none" xmlns="http://www.w3.org/2000/svg">
<path d="M12 2.7002C14.0243 2.7002 15.803 3.4048 17.3555 4.83301C18.879 6.2346 19.6553 8.11807 19.6553 10.5381C19.6552 11.5233 19.4383 12.5081 18.9961 13.4961C18.5426 14.5095 17.9735 15.4801 17.2881 16.4082C16.5967 17.3444 15.8459 18.2182 15.0352 19.0293C14.2121 19.8528 13.4448 20.5813 12.7334 21.2148L12.7275 21.2197L12.7227 21.2246C12.6321 21.3103 12.5276 21.3724 12.4053 21.4121C12.2588 21.4596 12.1216 21.4814 11.9922 21.4814C11.8629 21.4814 11.7293 21.4595 11.5898 21.4131C11.4741 21.3746 11.376 21.3145 11.29 21.2305L11.2812 21.2217L11.2715 21.2139C10.5565 20.5807 9.78753 19.8525 8.96484 19.0293C8.1541 18.2182 7.40327 17.3444 6.71191 16.4082C6.02666 15.4803 5.45823 14.5101 5.00684 13.4971C4.56647 12.5089 4.35064 11.5237 4.35059 10.5381C4.35059 8.11778 5.12671 6.23457 6.64844 4.83301C8.19877 3.405 9.97573 2.70022 12 2.7002ZM12 3.40918C10.0648 3.40918 8.40993 4.07808 7.06836 5.41211C5.71878 6.75434 5.05371 8.4778 5.05371 10.5381C5.05382 11.9576 5.64762 13.4967 6.75195 15.1416C7.85681 16.7872 9.49748 18.6161 11.6592 20.627L11.9961 20.9404L12.3359 20.6318C14.5487 18.6244 16.2063 16.7936 17.2891 15.1406C18.3679 13.4935 18.9462 11.9544 18.9463 10.5381C18.9463 8.47775 18.2813 6.75435 16.9316 5.41211V5.41113C15.5898 4.07724 13.9351 3.40922 12 3.40918ZM11.998 9.05762C12.3642 9.05766 12.662 9.18069 12.9189 9.43652C13.1751 9.69164 13.2979 9.98795 13.2979 10.3535C13.2978 10.7197 13.1749 11.0159 12.9199 11.2705C12.6651 11.5249 12.3684 11.6475 12.002 11.6475C11.6349 11.6474 11.3392 11.5245 11.085 11.2715C10.8314 11.0189 10.7081 10.7246 10.708 10.3584C10.708 10.0369 10.8023 9.76826 10.9961 9.53418L11.085 9.43652C11.3379 9.18114 11.6325 9.05762 11.998 9.05762Z" fill="#29233B" stroke="#29233B"/>
</svg>
