<svg width="24" height="25" viewBox="0 0 24 25" fill="none" xmlns="http://www.w3.org/2000/svg">
<path d="M3.05371 6.09766V19.3018H20.9463V6.49414L20.1709 7.00391L12.2148 12.2422C12.1545 12.2738 12.1021 12.2995 12.0566 12.3174C12.0535 12.3184 12.0367 12.3232 12 12.3232C11.9627 12.3232 11.9461 12.3183 11.9434 12.3174C11.8977 12.2994 11.8449 12.2741 11.7842 12.2422L4.05371 7.15137V6.75195L11.7266 11.7773L12 11.957L12.2734 11.7783L20.6201 6.32812L21.6309 5.66699C21.6465 5.7448 21.6553 5.82519 21.6553 5.90918V18.8018C21.6553 19.123 21.543 19.3965 21.2939 19.6445C21.0451 19.8926 20.7703 20.0049 20.4463 20.0049H3.55371C3.23199 20.0049 2.95881 19.8925 2.71094 19.6445L2.62402 19.5508C2.43636 19.328 2.35059 19.0833 2.35059 18.8018V5.90918C2.3506 5.82066 2.35965 5.73594 2.37695 5.6543L3.05371 6.09766ZM3.55371 4.7002H20.4463C20.7697 4.7002 21.0439 4.81337 21.293 5.0625H21.2939C21.4036 5.17216 21.4851 5.28763 21.5439 5.40918H2.46094C2.51962 5.28719 2.60139 5.17142 2.71094 5.06152H2.71191C2.95988 4.81265 3.23264 4.70022 3.55371 4.7002Z" fill="#29233B" stroke="#29233B"/>
</svg>
