<svg width="49" height="49" viewBox="0 0 49 49" fill="none" xmlns="http://www.w3.org/2000/svg">
<path d="M28.8919 44.2805C28.3615 44.3712 27.9037 44.2528 27.5184 43.9255C27.1334 43.5985 26.9409 43.1452 26.9409 42.5655C26.9409 42.1668 27.0715 41.8162 27.3329 41.5135C27.5939 41.2112 27.9277 41.0147 28.3344 40.924C29.337 40.6987 30.3169 40.3897 31.2739 39.997C32.2309 39.604 33.148 39.1108 34.0254 38.5175C34.3734 38.2935 34.7545 38.2042 35.1689 38.2495C35.5835 38.2948 35.9195 38.4628 36.1769 38.7535C36.5659 39.1678 36.7437 39.6295 36.7104 40.1385C36.677 40.6475 36.4452 41.0473 36.0149 41.338C34.9132 42.0807 33.772 42.6922 32.5914 43.1725C31.4107 43.6525 30.1775 44.0218 28.8919 44.2805ZM39.1884 35.7035C38.89 35.4462 38.7202 35.1082 38.6789 34.6895C38.6375 34.2712 38.7249 33.8842 38.9409 33.5285C39.5089 32.6842 39.9872 31.7938 40.3759 30.8575C40.7649 29.9215 41.0847 28.9227 41.3354 27.861C41.418 27.4543 41.6312 27.1185 41.9749 26.8535C42.3189 26.5882 42.698 26.4555 43.1124 26.4555C43.643 26.4555 44.0782 26.646 44.4179 27.027C44.7579 27.4083 44.8699 27.8602 44.7539 28.3825C44.4952 29.7095 44.1072 30.9717 43.5899 32.169C43.0722 33.3667 42.4627 34.4868 41.7614 35.5295C41.4707 35.9598 41.0729 36.1937 40.5679 36.231C40.0629 36.2683 39.603 36.0925 39.1884 35.7035ZM43.1004 22.2555C42.694 22.2555 42.3189 22.1228 41.9749 21.8575C41.6312 21.5925 41.414 21.2527 41.3234 20.838C41.0727 19.8097 40.755 18.8295 40.3704 17.8975C39.9854 16.9652 39.5089 16.0602 38.9409 15.1825C38.7329 14.8268 38.6579 14.4398 38.7159 14.0215C38.7739 13.6028 38.952 13.2442 39.2504 12.9455C39.665 12.5645 40.1125 12.401 40.5929 12.455C41.0732 12.509 41.4587 12.7472 41.7494 13.1695C42.4844 14.3125 43.0939 15.4577 43.5779 16.605C44.0619 17.7523 44.4499 18.9895 44.7419 20.3165C44.8659 20.8388 44.7642 21.2927 44.4369 21.678C44.1099 22.063 43.6644 22.2555 43.1004 22.2555ZM20.7399 44.2925C16.0572 43.3432 12.1912 41.0177 9.14187 37.316C6.09254 33.614 4.56787 29.2938 4.56787 24.3555C4.56787 19.4488 6.09254 15.1487 9.14187 11.455C12.1912 7.76099 16.0572 5.42749 20.7399 4.45449C21.2702 4.33049 21.7279 4.43849 22.1129 4.77849C22.4982 5.11816 22.6909 5.56116 22.6909 6.10749C22.6909 6.50616 22.5582 6.86716 22.2929 7.19049C22.0279 7.51349 21.692 7.72033 21.2854 7.81099C17.4237 8.66832 14.2419 10.6457 11.7399 13.743C9.23754 16.8403 7.98637 20.3778 7.98637 24.3555C7.98637 28.3332 9.23754 31.8707 11.7399 34.968C14.2419 38.0653 17.4237 40.0427 21.2854 40.9C21.684 40.9907 22.0179 41.1995 22.2869 41.5265C22.5562 41.8538 22.6909 42.2168 22.6909 42.6155C22.6909 43.1618 22.4962 43.6088 22.1069 43.9565C21.7179 44.3045 21.2622 44.4165 20.7399 44.2925ZM34.0634 10.2435C33.1607 9.69149 32.2412 9.21899 31.3049 8.82599C30.3685 8.43332 29.4197 8.11166 28.4584 7.86099C28.0517 7.77033 27.7157 7.55516 27.4504 7.21549C27.1854 6.87549 27.0529 6.49833 27.0529 6.08399C27.0529 5.54533 27.235 5.11249 27.5994 4.78549C27.964 4.45816 28.4075 4.35649 28.9299 4.48049C30.1569 4.73916 31.371 5.10216 32.5724 5.56949C33.7737 6.03683 34.9252 6.64199 36.0269 7.38499C36.4492 7.67533 36.6874 8.07316 36.7414 8.57849C36.7954 9.08349 36.6277 9.54316 36.2384 9.95749C35.9734 10.2562 35.6335 10.4262 35.2189 10.4675C34.8045 10.5088 34.4194 10.4342 34.0634 10.2435ZM24.8409 34.4305C24.5662 34.4305 24.2999 34.3805 24.0419 34.2805C23.7839 34.1805 23.5549 34.0432 23.3549 33.8685C20.9739 31.7032 19.1964 29.684 18.0224 27.811C16.8484 25.9377 16.2614 24.1852 16.2614 22.5535C16.2614 20.0388 17.0794 17.947 18.7154 16.278C20.351 14.6087 22.3929 13.774 24.8409 13.774C27.2805 13.774 29.3164 14.6087 30.9484 16.278C32.5804 17.947 33.3964 20.0388 33.3964 22.5535C33.3964 24.1932 32.8114 25.9477 31.6414 27.817C30.4714 29.686 28.6959 31.7032 26.3149 33.8685C26.1069 34.0432 25.8779 34.1805 25.6279 34.2805C25.3779 34.3805 25.1155 34.4305 24.8409 34.4305ZM24.8409 24.4655C25.4822 24.4655 26.0255 24.2345 26.4709 23.7725C26.9159 23.3105 27.1384 22.7548 27.1384 22.1055C27.1384 21.4562 26.9159 20.9088 26.4709 20.4635C26.0255 20.0182 25.4822 19.7955 24.8409 19.7955C24.1835 19.7955 23.6322 20.0182 23.1869 20.4635C22.7415 20.9088 22.5189 21.4562 22.5189 22.1055C22.5189 22.7548 22.7415 23.3105 23.1869 23.7725C23.6322 24.2345 24.1835 24.4655 24.8409 24.4655Z" fill="#29233B"/>
</svg>
